<?xml version="1.0" encoding="UTF-8" standalone="no"?>
<svg width="32px" height="32px" viewBox="0 0 32 32" version="1.1" xmlns="http://www.w3.org/2000/svg" xmlns:xlink="http://www.w3.org/1999/xlink">
    <!-- Generator: Sketch 39.1 (31720) - http://www.bohemiancoding.com/sketch -->
    <title>add</title>
    <desc>Created with Sketch.</desc>
    <defs></defs>
    <g id="Page-1" stroke="none" stroke-width="1" fill="none" fill-rule="evenodd">
        <g id="UI-Kit_events" transform="translate(-293.000000, -148.000000)">
            <g id="add" transform="translate(293.000000, 148.000000)">
                <path d="M16,0 C7.16315007,0 0,7.16439546 0,16.000604 C0,24.8368125 7.16315007,32 16,32 C19.8181278,32 23.3200594,30.6591673 26.0695394,28.426862 L27.8490342,26.7248499 C30.420208,23.8849421 32,20.1318184 32,16.000604 C32,7.16439546 24.8356612,0 16,0 L16,0 Z M16.0006146,30 C8.26770271,30 2,23.7307281 2,16 C2,8.26802284 8.26770271,2 16.0006146,2 C23.7322973,2 30,8.26802284 30,16 C30,23.7307281 23.7322973,30 16.0006146,30 L16.0006146,30 Z" id="Imported-Layers" fill="#037AFF"></path>
                <path d="M16,9 L16,23" id="Line" stroke="#037AFF" stroke-width="2" stroke-linecap="round"></path>
                <path d="M23,16 L9,16" id="Line" stroke="#037AFF" stroke-width="2" stroke-linecap="round"></path>
            </g>
        </g>
    </g>
</svg>