<?xml version="1.0" encoding="UTF-8" standalone="no"?>
<svg width="30px" height="30px" viewBox="0 0 30 30" version="1.1" xmlns="http://www.w3.org/2000/svg" xmlns:xlink="http://www.w3.org/1999/xlink">
    <!-- Generator: Sketch 39.1 (31720) - http://www.bohemiancoding.com/sketch -->
    <title>camera</title>
    <desc>Created with Sketch.</desc>
    <defs></defs>
    <g id="Page-1" stroke="none" stroke-width="1" fill="none" fill-rule="evenodd">
        <g id="UI-Kit" transform="translate(-23.000000, -33.000000)">
            <g id="camera" transform="translate(23.000000, 33.000000)">
                <circle id="Oval" fill="#9BAAC6" opacity="0.6" cx="15" cy="15" r="15"></circle>
                <path d="M23.2970649,10.7849747 C22.8284415,10.3644209 22.2625838,10.154144 21.600211,10.154144 L19.5004675,10.154144 L19.0223508,9.01007773 C18.9032531,8.73525913 18.6863458,8.49826198 18.3706219,8.29856994 C18.0548981,8.09991056 17.7316946,8 17.4002925,8 L12.6002829,8 C12.2687369,8 11.9451019,8.09991056 11.6299534,8.29856994 C11.3140857,8.49826198 11.0967469,8.73525913 10.9780807,9.01007773 L10.499964,10.154144 L8.40036439,10.154144 C7.73727236,10.154144 7.17199,10.3644209 6.70293509,10.7849747 C6.2343117,11.2053994 6,11.7132135 6,12.3076427 L6,19.8465014 C6,20.4409305 6.2343117,20.9487447 6.70293509,21.3692984 C7.17199,21.7898522 7.73727236,22 8.40036439,22 L21.600211,22 C22.2625838,22 22.8284415,21.7898522 23.2970649,21.3692984 C23.7656883,20.9487447 24,20.4409305 24,19.8465014 L24,12.3076427 C24,11.7132135 23.7656883,11.2053994 23.2970649,10.7849747 L23.2970649,10.7849747 Z M17.8258703,18.8260877 C17.0435281,19.6082393 16.1011832,20 14.9999315,20 C13.8986798,20 12.9568828,19.6082393 12.1739927,18.8260877 C11.3912396,18.0432512 11,17.1009708 11,16.0003424 C11,14.8991661 11.3916505,13.9574337 12.1739927,13.1745972 C12.9568828,12.3917607 13.8986798,12 14.9999315,12 C16.1011832,12 17.0429802,12.3917607 17.8258703,13.1745972 C18.6087604,13.9568858 19,14.8991661 19,16.0003424 C19,17.1009708 18.6087604,18.0432512 17.8258703,18.8260877 L17.8258703,18.8260877 Z" id="Fill-1" fill="#FFFFFF"></path>
                <path d="M14.9961659,13 C14.1695937,13 13.4635234,13.2934235 12.8768361,13.8802706 C12.289989,14.4671177 11.9965655,15.1738273 11.9965655,16.0003995 C11.9965655,16.8263325 12.289989,17.5328823 12.8768361,18.1197294 C13.4635234,18.7065765 14.1695937,19 14.9961659,19 C15.8227381,19 16.5294478,18.7065765 17.1162949,18.1197294 C17.7031419,17.5328823 17.9965655,16.8263325 17.9965655,16.0003995 C17.9965655,15.1738273 17.7031419,14.4671177 17.1162949,13.8802706 C16.5294478,13.2934235 15.8227381,13 14.9961659,13 L14.9961659,13 Z" id="Fill-2" fill="#FFFFFF"></path>
            </g>
        </g>
    </g>
</svg>