<?xml version="1.0" encoding="UTF-8" standalone="no"?>
<svg width="16px" height="16px" viewBox="0 0 16 16" version="1.1" xmlns="http://www.w3.org/2000/svg" xmlns:xlink="http://www.w3.org/1999/xlink">
    <!-- Generator: Sketch 39.1 (31720) - http://www.bohemiancoding.com/sketch -->
    <title>comment ntf</title>
    <desc>Created with Sketch.</desc>
    <defs></defs>
    <g id="Page-1" stroke="none" stroke-width="1" fill="none" fill-rule="evenodd">
        <g id="UI-Kit" transform="translate(-47.000000, -236.000000)">
            <g id="comment-ntf" transform="translate(47.000000, 236.000000)">
                <g id="comment" transform="translate(-0.500000, -0.500000)">
                    <path d="M16.5,8.5 C16.5,4.081722 12.918278,0.5 8.5,0.5 C4.081722,0.5 0.5,4.081722 0.5,8.5 C0.5,12.918278 4.081722,16.5 8.5,16.5 C12.918278,16.5 16.5,12.918278 16.5,8.5 Z" id="Oval-142" fill="#FFFFFF"></path>
                    <path d="M1.5,8.5 C1.5,4.63400675 4.63400675,1.5 8.5,1.5 C12.3659932,1.5 15.5,4.63400675 15.5,8.5 C15.5,12.3659932 12.3659932,15.5 8.5,15.5 C4.63400675,15.5 1.5,12.3659932 1.5,8.5 Z" id="Path" fill="#65A7F2"></path>
                    <path d="M3.5,7.4375 C3.5,8.68034375 4.37191162,9.80460352 5.51409912,10.526291 L5.51409912,12.5178223 L7.52374268,11.4944458 L8.5,11.4944458 C11.26125,11.4944458 13.5,9.612125 13.5,7.4375 C13.5,5.26315625 11.26125,3.5 8.5,3.5 C5.7384375,3.5 3.5,5.26315625 3.5,7.4375 Z" id="Fill-3-Copy-2" fill="#FFFFFF"></path>
                </g>
            </g>
        </g>
    </g>
</svg>