<?xml version="1.0" encoding="UTF-8" standalone="no"?>
<svg width="22px" height="7px" viewBox="0 0 22 7" version="1.1" xmlns="http://www.w3.org/2000/svg" xmlns:xlink="http://www.w3.org/1999/xlink">
    <!-- Generator: Sketch 39.1 (31720) - http://www.bohemiancoding.com/sketch -->
    <title>Edit</title>
    <desc>Created with Sketch.</desc>
    <defs></defs>
    <g id="Page-1" stroke="none" stroke-width="1" fill="none" fill-rule="evenodd">
        <g id="UI-Kit_board_veiws" transform="translate(-224.000000, -234.000000)" stroke="#A8B5CD">
            <path d="M227.5,235 C226.119375,235 225,236.119375 225,237.5 C225,238.880625 226.119375,240 227.5,240 C228.880625,240 230,238.880625 230,237.5 C230,236.119375 228.880625,235 227.5,235 L227.5,235 Z M235,235 C233.619375,235 232.5,236.119375 232.5,237.5 C232.5,238.880625 233.619375,240 235,240 C236.380625,240 237.5,238.880625 237.5,237.5 C237.5,236.119375 236.380625,235 235,235 L235,235 Z M242.5,235 C241.119375,235 240,236.119375 240,237.5 C240,238.880625 241.119375,240 242.5,240 C243.880625,240 245,238.880625 245,237.5 C245,236.119375 243.880625,235 242.5,235 L242.5,235 Z" id="Edit"></path>
        </g>
    </g>
</svg>