<?xml version="1.0" encoding="UTF-8" standalone="no"?>
<svg width="22px" height="22px" viewBox="0 0 22 22" version="1.1" xmlns="http://www.w3.org/2000/svg" xmlns:xlink="http://www.w3.org/1999/xlink">
    <!-- Generator: Sketch 39.1 (31720) - http://www.bohemiancoding.com/sketch -->
    <title>explore_menu_active</title>
    <desc>Created with Sketch.</desc>
    <defs></defs>
    <g id="Page-1" stroke="none" stroke-width="1" fill="none" fill-rule="evenodd">
        <g id="UI-Kit_board_veiws" transform="translate(-85.000000, -89.000000)" fill="#E1E4E5">
            <path d="M99.3454358,95.3780607 C99.3303445,95.3856024 99.2548875,95.4265426 99.2419521,95.4351616 L94.8072419,97.9971596 C94.6433926,98.0919687 94.4892449,98.2104799 94.3501886,98.3505387 C94.218678,98.4819785 94.1011809,98.6306562 93.9632025,98.8590597 L91.4321623,103.241822 C91.4246166,103.25475 91.3825763,103.328012 91.3771865,103.34094 C91.2014797,103.707248 91.2780146,104.146817 91.5647508,104.431244 C91.7469254,104.61332 91.9883875,104.713516 92.2460189,104.713516 C92.3861532,104.713516 92.5284433,104.682272 92.6556421,104.623017 C92.6696555,104.615475 92.7440345,104.574535 92.75697,104.566993 L97.2003038,102.000686 C97.3609192,101.905877 97.511833,101.787365 97.6498114,101.649461 C97.7877897,101.511557 97.9074428,101.35857 98.0270959,101.156024 L100.569994,96.7560235 C100.576461,96.7452498 100.617424,96.6709109 100.622813,96.6601371 C100.797442,96.294907 100.721985,95.8574927 100.434171,95.5676787 C100.152825,95.2875612 99.7043951,95.212145 99.3454358,95.3780607 L99.3454358,95.3780607 Z M95.999461,89 C93.0598755,89 90.2970748,90.1441724 88.2176981,92.2213516 C83.927434,96.5114594 83.927434,103.488541 88.2176981,107.778648 C90.2949189,109.856905 93.0598755,111 95.999461,111 C98.9390465,111 101.704003,109.856905 103.782302,107.778648 C108.072566,103.490695 108.072566,96.5125367 103.782302,92.2213516 C101.702925,90.1441724 98.9390465,89 95.999461,89 Z M96.000539,91.7128306 C94.3598902,91.7128306 92.7731393,92.1901077 91.4547994,93.0703232 C91.4321623,93.0821743 91.3448479,93.14143 91.3243667,93.1565132 C91.267235,93.1996082 91.2122593,93.2459354 91.1680631,93.2911851 C90.8188054,93.641332 90.6754373,94.15524 90.8069479,94.6863859 L90.8522221,94.8555338 L90.6258513,94.7952008 C90.1504728,94.680999 89.6395218,94.8210578 89.2784066,95.1787463 C89.2331324,95.2250735 89.1910922,95.2746327 89.1630653,95.3134182 C89.1533637,95.3252693 89.0994659,95.4039177 89.0908423,95.4157689 C86.9133716,98.6866797 87.3542555,103.079138 90.1375374,105.860921 C91.7038071,107.426347 93.7853398,108.288247 96.000539,108.288247 C97.6411877,108.288247 99.2268607,107.809892 100.562448,106.922135 C100.578617,106.911361 100.660542,106.855338 100.675633,106.844564 C100.727375,106.805779 100.775883,106.763761 100.831937,106.709892 C101.184428,106.356513 101.324563,105.856611 101.191974,105.316846 L101.1467,105.145544 L101.371993,105.203722 C101.849527,105.322233 102.368024,105.174633 102.706502,104.834182 C102.759322,104.784623 102.804596,104.730754 102.836935,104.687659 C102.846636,104.674731 102.900534,104.59716 102.909158,104.584231 C105.087706,101.314398 104.6479,96.9219393 101.862463,94.1412341 C100.296193,92.575808 98.2146602,91.7128306 96.000539,91.7128306 Z M97.0752609,100.647502 C97.024597,100.733692 96.9609976,100.814496 96.8876966,100.887757 C96.8133177,100.962096 96.7346269,101.023506 96.6031163,101.103232 L92.5650938,103.435749 L94.9215052,99.3546523 C94.9775589,99.2641528 95.0390024,99.184427 95.1123034,99.1122429 C95.1866823,99.0389814 95.2653731,98.9764936 95.3817923,98.9053869 L99.4338282,96.5696376 L97.0752609,100.647502 Z M101.949777,104.068168 C101.8851,104.131734 101.799941,104.167287 101.709393,104.167287 L101.223235,104.062782 C101.18874,104.045544 101.034593,104.003526 100.996864,103.99383 C100.744622,103.949657 100.428781,104.05093 100.236905,104.240548 C100.040717,104.438786 99.950169,104.721058 99.9965211,104.994711 C99.9986771,105.010872 100.021314,105.103526 100.025626,105.118609 L100.159292,105.623898 C100.187319,105.741332 100.153903,105.864153 99.9889755,106.009598 C98.8075359,106.796082 97.4277525,107.210872 96.000539,107.210872 C94.073154,107.210872 92.2621883,106.461019 90.8996521,105.099216 C88.4774854,102.679432 88.0948111,98.8579824 90.0459111,95.936141 C90.1116664,95.8693438 90.2000588,95.8337904 90.292763,95.8337904 L90.8802489,95.9770813 C90.8802489,95.9770813 91.00098,96.0061704 91.0031359,96.0061704 C91.2575334,96.0503428 91.5679847,95.9512243 91.7663286,95.7583741 C91.9603606,95.5590597 92.049831,95.2767875 92.0034789,95.0052889 C92.0013229,94.9891283 91.9786859,94.8975514 91.9743741,94.8803134 L91.8396296,94.3739471 C91.8116027,94.2597453 91.8471753,94.1369246 92.0110245,93.9914789 C93.1924641,93.2049951 94.5722475,92.7902057 96.000539,92.7902057 C97.926846,92.7902057 99.7378117,93.5400588 101.100348,94.9029383 C103.523593,97.3227228 103.906267,101.143095 101.949777,104.068168 Z M95.5262384,100.475122 C95.7871037,100.738002 96.2128963,100.738002 96.4748395,100.475122 C96.7378607,100.212243 96.7378607,99.7877571 96.4748395,99.5259549 C96.2128963,99.2630754 95.7871037,99.2630754 95.5262384,99.5259549 C95.2621393,99.7877571 95.2621393,100.212243 95.5262384,100.475122 Z" id="explore_menu_active"></path>
        </g>
    </g>
</svg>