<?xml version="1.0" encoding="UTF-8" standalone="no"?>
<svg width="22px" height="22px" viewBox="0 0 22 22" version="1.1" xmlns="http://www.w3.org/2000/svg" xmlns:xlink="http://www.w3.org/1999/xlink">
    <!-- Generator: Sketch 39.1 (31720) - http://www.bohemiancoding.com/sketch -->
    <title>explore_menu</title>
    <desc>Created with Sketch.</desc>
    <defs></defs>
    <g id="Page-1" stroke="none" stroke-width="1" fill="none" fill-rule="evenodd">
        <g id="UI-Kit_board_veiws" transform="translate(-85.000000, -36.000000)" fill="#E1E4E5">
            <path d="M99.3454358,42.3780607 C99.3303445,42.3856024 99.2548875,42.4265426 99.2419521,42.4351616 L94.8072419,44.9971596 C94.6433926,45.0919687 94.4892449,45.2104799 94.3501886,45.3505387 C94.218678,45.4819785 94.1011809,45.6306562 93.9632025,45.8590597 L91.4321623,50.2418217 C91.4246166,50.2547502 91.3825763,50.3280118 91.3771865,50.3409403 C91.2014797,50.7072478 91.2780146,51.1468168 91.5647508,51.4312439 C91.7469254,51.6133203 91.9883875,51.7135162 92.2460189,51.7135162 C92.3861532,51.7135162 92.5284433,51.6822723 92.6556421,51.6230167 C92.6696555,51.615475 92.7440345,51.5745348 92.75697,51.5669931 L97.2003038,49.0006856 C97.3609192,48.9058766 97.511833,48.7873653 97.6498114,48.6494613 C97.7877897,48.5115573 97.9074428,48.35857 98.0270959,48.1560235 L100.569994,43.7560235 C100.576461,43.7452498 100.617424,43.6709109 100.622813,43.6601371 C100.797442,43.294907 100.721985,42.8574927 100.434171,42.5676787 C100.152825,42.2875612 99.7043951,42.212145 99.3454358,42.3780607 L99.3454358,42.3780607 Z M95.999461,36 C93.0598755,36 90.2970748,37.1441724 88.2176981,39.2213516 C83.927434,43.5114594 83.927434,50.4885406 88.2176981,54.7786484 C90.2949189,56.856905 93.0598755,58 95.999461,58 C98.9390465,58 101.704003,56.856905 103.782302,54.7786484 C108.072566,50.4906954 108.072566,43.5125367 103.782302,39.2213516 C101.702925,37.1441724 98.9390465,36 95.999461,36 Z M96.000539,38.7128306 C94.3598902,38.7128306 92.7731393,39.1901077 91.4547994,40.0703232 C91.4321623,40.0821743 91.3448479,40.14143 91.3243667,40.1565132 C91.267235,40.1996082 91.2122593,40.2459354 91.1680631,40.2911851 C90.8188054,40.641332 90.6754373,41.15524 90.8069479,41.6863859 L90.8522221,41.8555338 L90.6258513,41.7952008 C90.1504728,41.680999 89.6395218,41.8210578 89.2784066,42.1787463 C89.2331324,42.2250735 89.1910922,42.2746327 89.1630653,42.3134182 C89.1533637,42.3252693 89.0994659,42.4039177 89.0908423,42.4157689 C86.9133716,45.6866797 87.3542555,50.0791381 90.1375374,52.8609207 C91.7038071,54.4263467 93.7853398,55.2882468 96.000539,55.2882468 C97.6411877,55.2882468 99.2268607,54.8098923 100.562448,53.9221352 C100.578617,53.9113614 100.660542,53.8553379 100.675633,53.8445642 C100.727375,53.8057786 100.775883,53.763761 100.831937,53.7098923 C101.184428,53.3565132 101.324563,52.8566112 101.191974,52.3168462 L101.1467,52.1455436 L101.371993,52.2037218 C101.849527,52.3222331 102.368024,52.1746327 102.706502,51.8341822 C102.759322,51.7846229 102.804596,51.7307542 102.836935,51.6876592 C102.846636,51.6747307 102.900534,51.5971596 102.909158,51.5842311 C105.087706,48.3143976 104.6479,43.9219393 101.862463,41.1412341 C100.296193,39.575808 98.2146602,38.7128306 96.000539,38.7128306 Z M97.0752609,47.6475024 C97.024597,47.7336925 96.9609976,47.8144956 96.8876966,47.8877571 C96.8133177,47.962096 96.7346269,48.0235064 96.6031163,48.1032321 L92.5650938,50.4357493 L94.9215052,46.3546523 C94.9775589,46.2641528 95.0390024,46.184427 95.1123034,46.1122429 C95.1866823,46.0389814 95.2653731,45.9764936 95.3817923,45.9053869 L99.4338282,43.5696376 L97.0752609,47.6475024 Z M101.949777,51.0681685 C101.8851,51.1317336 101.799941,51.167287 101.709393,51.167287 L101.223235,51.0627816 C101.18874,51.0455436 101.034593,51.003526 100.996864,50.9938296 C100.744622,50.9496572 100.428781,51.0509305 100.236905,51.2405485 C100.040717,51.4387855 99.950169,51.7210578 99.9965211,51.9947111 C99.9986771,52.0108717 100.021314,52.103526 100.025626,52.1186092 L100.159292,52.6238981 C100.187319,52.741332 100.153903,52.8641528 99.9889755,53.0095984 C98.8075359,53.7960823 97.4277525,54.2108717 96.000539,54.2108717 C94.073154,54.2108717 92.2621883,53.4610186 90.8996521,52.0992165 C88.4774854,49.6794319 88.0948111,45.8579824 90.0459111,42.936141 C90.1116664,42.8693438 90.2000588,42.8337904 90.292763,42.8337904 L90.8802489,42.9770813 C90.8802489,42.9770813 91.00098,43.0061704 91.0031359,43.0061704 C91.2575334,43.0503428 91.5679847,42.9512243 91.7663286,42.7583741 C91.9603606,42.5590597 92.049831,42.2767875 92.0034789,42.0052889 C92.0013229,41.9891283 91.9786859,41.8975514 91.9743741,41.8803134 L91.8396296,41.3739471 C91.8116027,41.2597453 91.8471753,41.1369246 92.0110245,40.9914789 C93.1924641,40.2049951 94.5722475,39.7902057 96.000539,39.7902057 C97.926846,39.7902057 99.7378117,40.5400588 101.100348,41.9029383 C103.523593,44.3227228 103.906267,48.143095 101.949777,51.0681685 Z M103.020187,54.0169442 C101.144544,55.8904995 98.6512323,56.9226249 95.999461,56.9226249 C93.3476897,56.9226249 90.854378,55.8904995 88.9798128,54.0169442 C85.1099515,50.1480901 85.1099515,43.8519099 88.9798128,39.9830558 C90.8554559,38.1095005 93.3487677,37.0773751 95.999461,37.0773751 C98.6512323,37.0773751 101.144544,38.1095005 103.020187,39.9830558 C106.890049,43.8529873 106.891126,50.1491675 103.020187,54.0169442 Z M95.5262384,47.4751224 C95.7871037,47.738002 96.2128963,47.738002 96.4748395,47.4751224 C96.7378607,47.2122429 96.7378607,46.7877571 96.4748395,46.5259549 C96.2128963,46.2630754 95.7871037,46.2630754 95.5262384,46.5259549 C95.2621393,46.7877571 95.2621393,47.2122429 95.5262384,47.4751224 Z" id="explore_menu"></path>
        </g>
    </g>
</svg>