<?xml version="1.0" encoding="UTF-8" standalone="no"?>
<svg width="44px" height="44px" viewBox="0 0 44 44" version="1.1" xmlns="http://www.w3.org/2000/svg" xmlns:xlink="http://www.w3.org/1999/xlink">
    <!-- Generator: Sketch 39.1 (31720) - http://www.bohemiancoding.com/sketch -->
    <title>facebook</title>
    <desc>Created with Sketch.</desc>
    <defs></defs>
    <g id="Page-1" stroke="none" stroke-width="1" fill="none" fill-rule="evenodd">
        <g id="UI-Kit" transform="translate(-122.000000, -129.000000)">
            <g id="facebook" transform="translate(122.000000, 129.000000)">
                <path d="M44,22 C44,34.1497805 34.1497805,44 22,44 C9.85021948,44 0,34.1497805 0,22 C0,9.85021948 9.85021948,0 22,0 C34.1497805,0 44,9.85021948 44,22 L44,22 Z" id="Fill-1" fill="#3B5998"></path>
                <path d="M28.4770336,21.9739426 L24.6207586,21.9739426 L24.6207586,36 L18.7785598,36 L18.7785598,21.9739426 L16,21.9739426 L16,17.043116 L18.7785598,17.043116 L18.7785598,13.8535936 C18.7785598,11.5729727 19.8692769,8 24.6737294,8 L29,8.01864659 L29,12.8036474 L25.8607571,12.8036474 C25.3450141,12.8036474 24.6207586,13.0594403 24.6207586,14.1466796 L24.6207586,17.0488534 L28.9889243,17.0488534 L28.4770336,21.9739426 Z" id="Fill-2" fill="#FFFFFF"></path>
            </g>
        </g>
    </g>
</svg>