<?xml version="1.0" encoding="UTF-8" standalone="no"?>
<svg width="22px" height="21px" viewBox="0 0 22 21" version="1.1" xmlns="http://www.w3.org/2000/svg" xmlns:xlink="http://www.w3.org/1999/xlink">
    <!-- Generator: Sketch 39.1 (31720) - http://www.bohemiancoding.com/sketch -->
    <title>home_menu_active</title>
    <desc>Created with Sketch.</desc>
    <defs></defs>
    <g id="Page-1" stroke="none" stroke-width="1" fill="none" fill-rule="evenodd">
        <g id="UI-Kit_board_veiws" transform="translate(-33.000000, -88.000000)" fill="#E1E4E5">
            <g id="home_menu_active" transform="translate(32.000000, 87.000000)">
                <path d="M1.99866779,20 C1.96102392,21.0211862 1.95707941,22 2.99733995,22 L20.9881288,22 C22.0072125,22 21.9974679,20.9957886 22,20 L22,11 C23.0316981,11.0091654 23.233887,9.55682373 22.7417606,9.01489258 C21.5465349,7.69870641 13.1489852,1.32586554 13.1489852,1.32586554 C12.8221289,1.10996913 12.4286523,0.995910645 12.0112339,0.995910645 C11.5938156,0.995910645 11.2003389,1.10996913 10.8453772,1.34521475 C10.8453772,1.34521475 1.93460503,7.7354126 1.18913624,8.94995117 C0.733572443,9.69216843 1.12011146,11.0323744 1.99866779,11 C2.01948666,11.0323744 1.99866779,20 1.99866779,20 Z M12.0235596,2.02380371 C12.2307758,2.02380371 12.428573,2.07560848 12.5520655,2.1504376 L21.9570671,9.30831014 C22.0690476,9.4061636 22.1328869,9.53471619 22.1328869,9.67669964 C22.1328869,9.9577885 21.8838088,10.1870726 21.5761242,10.1870726 C21.4379801,10.1870726 21.3061152,10.1410239 21.1805297,10.0374144 L20.939824,9.86377243 C20.9356378,9.86089439 13.1674348,3.88781618 13.1674348,3.88781618 C12.5164829,3.48393082 11.5567999,3.46474387 10.8545672,3.90604379 C10.8545672,3.90604379 3.46097877,9.48962705 3.29143825,9.60762681 C3.27574006,9.61817964 3.26108841,9.62969181 3.24643676,9.64216333 C3.21818001,9.66614702 3.20352836,9.66806572 3.19201635,9.67669984 L2.92724011,9.86952872 C2.82572511,9.95395131 2.69490681,10 2.55676268,10 C2.24907804,10 2,9.77071591 2,9.48962705 C2,9.3476436 2.06383933,9.21909102 2.17581979,9.12123756 L11.4667969,2.16962455 C11.4667969,2.16962455 11.8163434,2.02380371 12.0235596,2.02380371 Z M8.98937291,21 L8.98937291,16 C8.98937291,15.3492223 9.37246434,15 9.98804507,15 L13.9827337,15 C14.5994121,15 14.9814059,15.3492223 14.9814059,16 L14.9814059,21 L8.98937291,21 Z" id="home_menu"></path>
                <path d="M20.1482227,21 L15.9833848,21 L15.9833848,16 C15.9833848,15.0205563 15.059649,14 13.9827337,14 L9.98804507,14 C8.96426744,14.0178366 7.95134296,15.0533321 7.99070075,16 L7.99070075,21 L3.82149261,21 C3.36634766,21 2.99733995,20.6518423 2.99733995,20.2236483 L2.99733995,11.6797774 C2.99733995,11.4496731 3.1026188,11.2345757 3.28765437,11.08951 C3.82787315,10.6963318 11.1282706,5.35691276 11.4217753,5.14181531 C11.7280411,4.94572647 12.2693233,4.96573554 12.5224179,5.12380715 L20.7352321,11.1215245 C20.8766673,11.2545848 20.9617412,11.4306645 20.9734388,11.5837339 L20.9734388,20.2236483 C20.9734388,20.6518423 20.6023043,21 20.1482227,21 Z" id="Combined-Shape"></path>
            </g>
        </g>
    </g>
</svg>