<?xml version="1.0" encoding="UTF-8" standalone="no"?>
<svg width="22px" height="21px" viewBox="0 0 22 21" version="1.1" xmlns="http://www.w3.org/2000/svg" xmlns:xlink="http://www.w3.org/1999/xlink">
    <!-- Generator: Sketch 39.1 (31720) - http://www.bohemiancoding.com/sketch -->
    <title>home_menu</title>
    <desc>Created with Sketch.</desc>
    <defs></defs>
    <g id="Page-1" stroke="none" stroke-width="1" fill="none" fill-rule="evenodd">
        <g id="UI-Kit_board_veiws" transform="translate(-33.000000, -37.000000)" fill="#E1E4E5">
            <path d="M33.9986678,56 C33.9610239,57.0211862 33.9570794,58 34.9973399,58 L52.9881288,58 C54.0072125,58 53.9974679,56.9957886 54,56 L54,47 C55.0316981,47.0091654 55.233887,45.5568237 54.7417606,45.0148926 C53.5465349,43.6987064 45.1489852,37.3258655 45.1489852,37.3258655 C44.8221289,37.1099691 44.4286523,36.9959106 44.0112339,36.9959106 C43.5938156,36.9959106 43.2003389,37.1099691 42.8453772,37.3452148 C42.8453772,37.3452148 33.934605,43.7354126 33.1891362,44.9499512 C32.7335724,45.6921684 33.1201115,47.0323744 33.9986678,47 C34.0194867,47.0323744 33.9986678,56 33.9986678,56 Z M44.0235596,38.0238037 C44.2307758,38.0238037 44.428573,38.0756085 44.5520655,38.1504376 L53.9570671,45.3083101 C54.0690476,45.4061636 54.1328869,45.5347162 54.1328869,45.6766996 C54.1328869,45.9577885 53.8838088,46.1870726 53.5761242,46.1870726 C53.4379801,46.1870726 53.3061152,46.1410239 53.1805297,46.0374144 L52.939824,45.8637724 C52.9356378,45.8608944 45.1674348,39.8878162 45.1674348,39.8878162 C44.5164829,39.4839308 43.5567999,39.4647439 42.8545672,39.9060438 C42.8545672,39.9060438 35.4609788,45.4896271 35.2914383,45.6076268 C35.2757401,45.6181796 35.2610884,45.6296918 35.2464368,45.6421633 C35.21818,45.666147 35.2035284,45.6680657 35.1920163,45.6766998 L34.9272401,45.8695287 C34.8257251,45.9539513 34.6949068,46 34.5567627,46 C34.249078,46 34,45.7707159 34,45.4896271 C34,45.3476436 34.0638393,45.219091 34.1758198,45.1212376 L43.4667969,38.1696246 C43.4667969,38.1696246 43.8163434,38.0238037 44.0235596,38.0238037 Z M40.9893729,57 L40.9893729,52 C40.9893729,51.3492223 41.3724643,51 41.9880451,51 L45.9827337,51 C46.5994121,51 46.9814059,51.3492223 46.9814059,52 L46.9814059,57 L40.9893729,57 Z M52.1482227,57 L47.9833848,57 L47.9833848,52 C47.9833848,51.0205563 47.059649,50 45.9827337,50 L41.9880451,50 C40.9642674,50.0178366 39.951343,51.0533321 39.9907007,52 L39.9907007,57 L35.8214926,57 C35.3663477,57 34.9973399,56.6518423 34.9973399,56.2236483 L34.9973399,47.6797774 C34.9973399,47.4496731 35.1026188,47.2345757 35.2876544,47.08951 C35.8278731,46.6963318 43.1282706,41.3569128 43.4217753,41.1418153 C43.7280411,40.9457265 44.2693233,40.9657355 44.5224179,41.1238072 L52.7352321,47.1215245 C52.8766673,47.2545848 52.9617412,47.4306645 52.9734388,47.5837339 L52.9734388,56.2236483 C52.9734388,56.6518423 52.6023043,57 52.1482227,57 Z" id="home_menu"></path>
        </g>
    </g>
</svg>