<?xml version="1.0" encoding="UTF-8" standalone="no"?>
<svg width="14px" height="19px" viewBox="0 0 14 19" version="1.1" xmlns="http://www.w3.org/2000/svg" xmlns:xlink="http://www.w3.org/1999/xlink">
    <!-- Generator: Sketch 39.1 (31720) - http://www.bohemiancoding.com/sketch -->
    <title>icon_location</title>
    <desc>Created with Sketch.</desc>
    <defs></defs>
    <g id="Page-1" stroke="none" stroke-width="1" fill="none" fill-rule="evenodd">
        <g id="UI-Kit_events" transform="translate(-55.000000, -8.000000)" stroke="#A1AEC8">
            <path d="M68,14.7686905 C68,16.0478766 67.217885,17.9927337 65.5372605,20.8873728 C64.3804116,22.8788955 63.2476934,24.5341515 63.2008517,24.6027773 L62.3747339,25.8051025 C62.292406,25.9272566 62.1504613,26 62,26 C61.8481192,26 61.707594,25.9272566 61.6252661,25.8051025 L60.7991483,24.6027773 C60.7508872,24.5327789 59.6096522,22.8637978 58.4627395,20.8873728 C56.782115,17.9913612 56,16.0478766 56,14.7686905 C56,11.5885677 58.6912704,9 62,9 C65.3087296,9 68,11.5885677 68,14.7686905 Z M62,16.8677539 C60.897076,16.8677539 60,15.9703708 60,14.8671659 C60,13.7639609 60.897076,12.8677539 62,12.8677539 C63.102924,12.8677539 64,13.7639609 64,14.8671659 C64,15.9703708 63.102924,16.8677539 62,16.8677539 Z" id="icon_location"></path>
        </g>
    </g>
</svg>