<?xml version="1.0" encoding="UTF-8" standalone="no"?>
<svg width="18px" height="15px" viewBox="0 0 18 15" version="1.1" xmlns="http://www.w3.org/2000/svg" xmlns:xlink="http://www.w3.org/1999/xlink">
    <!-- Generator: Sketch 39.1 (31720) - http://www.bohemiancoding.com/sketch -->
    <title>likes-icon-anactive2</title>
    <desc>Created with Sketch.</desc>
    <defs></defs>
    <g id="Page-1" stroke="none" stroke-width="1" fill="none" fill-rule="evenodd">
        <g id="UI-Kit_board_veiws" transform="translate(-130.000000, -238.000000)" fill="#9FB0C4">
            <path d="M147.71392,241.140028 C147.280141,239.947363 146.401834,238.993383 145.23946,238.45388 C144.592246,238.152303 143.904341,238 143.194172,238 C141.508959,238 139.929696,238.882754 139.067511,240.305011 C139.049853,240.323954 139.043711,240.331532 139.031427,240.367903 L139.374612,240.536876 L138.946975,240.33532 C138.946975,240.333805 138.946207,240.333047 138.945439,240.332289 C138.942368,240.327743 138.940065,240.323197 138.936994,240.317893 C138.077113,238.888816 136.493243,238 134.803424,238 C134.092487,238 133.404582,238.152303 132.757368,238.45388 C130.36045,239.568499 129.328593,242.400131 130.457955,244.767276 C131.277912,246.485805 135.478277,250.401748 137.908976,252.582491 C138.208398,252.851485 138.595345,253 138.998414,253 C139.398412,253 139.784591,252.853001 140.084781,252.58628 C142.517016,250.403263 146.718915,246.485047 147.538873,244.767276 C148.08628,243.620832 148.148467,242.332693 147.71392,241.140028 L147.71392,241.140028 Z" id="likes-icon-anactive2"></path>
        </g>
    </g>
</svg>