<?xml version="1.0" encoding="UTF-8" standalone="no"?>
<svg width="20px" height="17px" viewBox="0 0 20 17" version="1.1" xmlns="http://www.w3.org/2000/svg" xmlns:xlink="http://www.w3.org/1999/xlink">
    <!-- Generator: Sketch 39.1 (31720) - http://www.bohemiancoding.com/sketch -->
    <title>likes-icon-active</title>
    <desc>Created with Sketch.</desc>
    <defs></defs>
    <g id="Page-1" stroke="none" stroke-width="1" fill="none" fill-rule="evenodd">
        <g id="UI-Kit_board_veiws" transform="translate(-130.000000, -264.000000)" fill="#FF7074">
            <path d="M149.682134,267.558699 C149.200157,266.207012 148.22426,265.125834 146.932733,264.514397 C146.213607,264.172611 145.449268,264 144.660191,264 C142.787732,264 141.032995,265.000455 140.075013,266.612346 C140.055392,266.633815 140.048568,266.642403 140.034919,266.683623 L140.416235,266.875126 L139.941083,266.646696 C139.941083,266.644979 139.94023,266.64412 139.939377,266.643261 C139.935965,266.638109 139.933405,266.632956 139.929993,266.626945 C138.97457,265.007325 137.214715,264 135.337138,264 C134.547207,264 133.782869,264.172611 133.063742,264.514397 C130.4005,265.777632 129.253993,268.986816 130.508838,271.66958 C131.419903,273.617246 136.086974,278.055314 138.787751,280.526824 C139.120443,280.831683 139.550383,281 139.998238,281 C140.44268,281 140.871767,280.833401 141.205312,280.531117 C143.907795,278.057032 148.576573,273.616387 149.487637,271.66958 C150.095866,270.370277 150.164964,268.910386 149.682134,267.558699 L149.682134,267.558699 Z" id="likes-icon-active"></path>
        </g>
    </g>
</svg>