<?xml version="1.0" encoding="UTF-8" standalone="no"?>
<svg width="15px" height="17px" viewBox="0 0 15 17" version="1.1" xmlns="http://www.w3.org/2000/svg" xmlns:xlink="http://www.w3.org/1999/xlink">
    <!-- Generator: Sketch 39.1 (31720) - http://www.bohemiancoding.com/sketch -->
    <title>list</title>
    <desc>Created with Sketch.</desc>
    <defs></defs>
    <g id="Page-1" stroke="none" stroke-width="1" fill="none" fill-rule="evenodd">
        <g id="UI-Kit_events" transform="translate(-247.000000, -101.000000)" fill="#A1AEC8">
            <path d="M258.002563,103.004028 L258.002563,102 L257,102 C256.564711,101.367812 255.488929,101 254.5,101 C253.511071,101 252.47185,101.367812 252.007385,102 L251.00177,102 L251.00177,103.004028 L249,103.004028 C247.834918,103.004028 247,104.076469 247,105.25 L247,115.875 C247,117.048531 247.959464,118 249.142857,118 L259.857143,118 C261.040536,118 262,117.048531 262,115.875 L262,105.25 C262,104.076469 261.195783,103.004028 260,103.004028 L258.002563,103.004028 Z M259.916667,117 L249.083333,117 C248.484792,117 248,116.515208 248,115.916667 L248,105.083333 C248,104.485333 248.484792,104 249.083333,104 L251,104 L251,106.004761 L258,106.004761 L258,104 L259.916667,104 C260.514667,104 261,104.485333 261,105.083333 L261,115.916667 C261,116.515208 260.514667,117 259.916667,117 Z M253,103 C253.035828,102.448 253.733,102 254.5,102 C255.267,102 256.019165,102.448 256,103 L257,103 L257,105 L252,105 L252,103 L253,103 Z M258.4375,114 L250.5625,114 C250.251438,114 250,114.224 250,114.5 C250,114.7765 250.251438,115 250.5625,115 L258.4375,115 C258.748562,115 259,114.7765 259,114.5 C259,114.224 258.748562,114 258.4375,114 Z M258.4375,111 L250.5625,111 C250.251438,111 250,111.224 250,111.5 C250,111.7765 250.251438,112 250.5625,112 L258.4375,112 C258.748562,112 259,111.7765 259,111.5 C259,111.224 258.748562,111 258.4375,111 Z M258.4375,108 L250.5625,108 C250.251438,108 250,108.224 250,108.5 C250,108.7765 250.251438,109 250.5625,109 L258.4375,109 C258.748562,109 259,108.7765 259,108.5 C259,108.224 258.748562,108 258.4375,108 Z" id="list"></path>
        </g>
    </g>
</svg>