<?xml version="1.0" encoding="UTF-8" standalone="no"?>
<svg width="12px" height="15px" viewBox="0 0 12 15" version="1.1" xmlns="http://www.w3.org/2000/svg" xmlns:xlink="http://www.w3.org/1999/xlink">
    <!-- Generator: Sketch 39.1 (31720) - http://www.bohemiancoding.com/sketch -->
    <title>lock</title>
    <desc>Created with Sketch.</desc>
    <defs></defs>
    <g id="Page-1" stroke="none" stroke-width="1" fill="none" fill-rule="evenodd">
        <g id="UI-Kit_events" transform="translate(-292.000000, -102.000000)" fill="#A1AEC8">
            <g id="lock" transform="translate(292.000000, 102.000000)">
                <path d="M5.40103359,10.8169903 L5.40361757,11.5509709 C5.44134367,11.8237864 5.6744186,12 5.99793282,12 C6.32299742,12 6.56330749,11.8019417 6.58449612,11.5242718 C6.5870801,11.5106796 6.5881137,11.4975728 6.5881137,11.4839806 L6.5881137,10.8169903 C6.5881137,10.7640777 6.59276486,10.6975728 6.59741602,10.692233 C6.60310078,10.6883495 6.63927649,10.6616505 6.64496124,10.6572816 C6.87080103,10.4776699 7,10.2160194 7,9.93932039 C7,9.42135922 6.55142119,9 6,9 C5.44857881,9 5,9.42135922 5,9.93932039 C5,10.2165049 5.12971576,10.4786408 5.38346253,10.6776699 C5.38863049,10.6820388 5.40103359,10.7043689 5.40103359,10.8169903 L5.40103359,10.8169903 Z M6,9.48543689 C6.26666667,9.48543689 6.48320413,9.68932039 6.48320413,9.93932039 C6.48320413,10.0728155 6.42067183,10.2 6.27751938,10.3116505 C6.09302326,10.4626214 6.07131783,10.6723301 6.07131783,10.8169903 L6.07131783,11.4533981 C6.06821705,11.4694175 6.06614987,11.4854369 6.06614987,11.5014563 C6.06356589,11.5043689 6.04392765,11.5145631 5.99793282,11.5145631 C5.94521964,11.5145631 5.91782946,11.5058252 5.91782946,11.5194175 L5.91782946,10.8169903 C5.91782946,10.6961165 5.91782946,10.4718447 5.68888889,10.2864078 C5.57984496,10.2 5.51679587,10.073301 5.51679587,9.93932039 C5.51679587,9.68932039 5.73385013,9.48543689 6,9.48543689 L6,9.48543689 Z" id="Fill-1"></path>
                <path d="M1.0022899,15 L10.9977101,15 C11.5507213,15 12,14.5635079 12,14.0263894 L12,6.97720912 C12,6.44075703 11.5507213,6.00426496 10.9977101,6.00426496 L10.7874971,6.00426496 C10.7359744,6.00426496 10.6940692,5.96561375 10.6920082,5.88897774 L10.6920082,4.77342396 C10.6920082,3.51526056 10.2152507,2.32773557 9.34966796,1.43009463 C8.47584154,0.521124883 7.25646897,0 5.99656515,0 C4.74284406,0 3.52347149,0.521124883 2.65101901,1.43009463 C1.78543623,2.32840197 1.30867873,3.51592696 1.30867873,4.77342396 L1.30730479,5.91096895 C1.30730479,5.96294815 1.26402565,6.00426496 1.21112892,6.00426496 L1.0022899,6.00426496 C0.449278681,6.00426496 0,6.44075703 0,6.97720912 L0,14.0263894 C0,14.5635079 0.449278681,15 1.0022899,15 Z M1,7.28002435 C1,7.12601096 1.13317817,7 1.29674166,7 L10.7032583,7 C10.8668218,7 11,7.12601096 11,7.28002435 L11,13.7193669 C11,13.8745978 10.8668218,14 10.7032583,14 L1.29674166,14 C1.13317817,14 1,13.8745978 1,13.7193669 L1,7.28002435 Z M4.07684811,6 C4.03675345,6 4.00278435,5.97087884 4,5.89339574 L4,5.03952158 C4,4.49089964 4.21049701,3.97659906 4.59251009,3.59022361 C4.59640819,3.58710348 4.60030628,3.58346334 4.60420437,3.57982319 C4.97173883,3.21112845 5.47904775,3 5.99638034,3 L6.00250592,3 C6.51649729,3 7.02157873,3.20904836 7.38911318,3.57410296 C7.39356815,3.57878315 7.39857998,3.58346334 7.40303494,3.58814353 C7.78671864,3.975039 7.99832939,4.48985959 7.99832939,5.03952158 L8,5.93603744 C7.99554504,5.9724389 7.96213281,6 7.92259502,6 L4.07684811,6 Z M2.01981382,4.84706617 C2.01981382,3.82833958 2.42838842,2.8670412 3.17106499,2.14107366 C3.91032539,1.41635456 4.94132718,1 6.00649073,1 C7.06277223,1 8.09377402,1.41635456 8.83440089,2.14169788 C9.57707746,2.86641698 9.98565206,3.82771536 9.98565206,4.84706617 L9.99111794,5.83645443 C9.9863353,5.85955056 9.98496883,5.92446941 9.9863353,5.94818976 C9.98701853,5.96691635 9.99726706,5.98189763 10,6 L9.13434111,6 C9.13980699,5.96878901 9.14117346,5.94007491 9.13844052,5.86641698 L9.13844052,4.84706617 C9.13844052,4.02496879 8.81048766,3.25218477 8.21607311,2.6710362 C7.63122384,2.09925094 6.82773935,1.77465668 6.00239132,1.77465668 C5.17840977,1.77465668 4.37629174,2.0980025 3.80442395,2.65667915 C3.79656674,2.66354557 3.79349219,2.66541823 3.78870954,2.67041199 C3.19429499,3.25093633 2.86634213,4.02372035 2.86634213,4.84706617 L2.86497566,5.91260924 C2.86497566,5.92322097 2.86702537,5.97440699 2.8677086,5.98501873 C2.86839184,5.9906367 2.87180801,5.99500624 2.87249125,6 L2,6 C2.00409941,5.97003745 2.01913058,5.94382022 2.01981382,5.91260924 L2.01981382,4.84706617 Z" id="Combined-Shape"></path>
            </g>
        </g>
    </g>
</svg>