<?xml version="1.0" encoding="UTF-8" standalone="no"?>
<svg width="30px" height="30px" viewBox="0 0 30 30" version="1.1" xmlns="http://www.w3.org/2000/svg" xmlns:xlink="http://www.w3.org/1999/xlink">
    <!-- Generator: Sketch 39.1 (31720) - http://www.bohemiancoding.com/sketch -->
    <title>microphone</title>
    <desc>Created with Sketch.</desc>
    <defs>
        <path d="M9,11.5178223 L9,16.6414901 C9,17.8398452 9.58748502,18.8659916 10.7618796,19.7199294 C11.9374251,20.5730311 13.3503237,21 15,21 C16.6496763,21 18.0625749,20.5730311 19.2378327,19.7199294 C20.4122273,18.8659916 21,17.8398452 21,16.6414901 L21,11.5178223" id="path-1"></path>
        <mask id="mask-2" maskContentUnits="userSpaceOnUse" maskUnits="objectBoundingBox" x="0" y="0" width="12" height="9.48217773" fill="white">
            <use xlink:href="#path-1"></use>
        </mask>
    </defs>
    <g id="Page-1" stroke="none" stroke-width="1" fill="none" fill-rule="evenodd">
        <g id="UI-Kit" transform="translate(-346.000000, -83.000000)">
            <g id="microphone" transform="translate(346.000000, 83.000000)">
                <circle id="Oval" fill="#9BAAC6" opacity="0.6" cx="15" cy="15" r="15"></circle>
                <use id="Fill-1" stroke="#FFFFFF" mask="url(#mask-2)" stroke-width="2" stroke-linecap="round" stroke-linejoin="round" xlink:href="#path-1"></use>
                <path d="M17.8252218,18.0211224 C18.6081515,17.3681112 19,16.583411 19,15.6670218 L19,9.33377727 C19,8.41658898 18.6089187,7.63188877 17.8252218,6.97951682 C17.0417166,6.32650561 16.0997842,6 15,6 C13.9002158,6 12.9582834,6.32650561 12.1745864,6.97951682 C11.3910813,7.63188877 11,8.41658898 11,9.33377727 L11,15.6670218 C11,16.583411 11.3916567,17.3681112 12.1745864,18.0211224 C12.9582834,18.6734944 13.9002158,19 15,19 C16.0997842,19 17.0417166,18.6734944 17.8252218,18.0211224 Z M9.5,12 C9.77614237,12 10,11.7761424 10,11.5 C10,11.2238576 9.77614237,11 9.5,11 C9.22385763,11 9,11.2238576 9,11.5 C9,11.7761424 9.22385763,12 9.5,12 Z M20.5,12 C20.7761424,12 21,11.7761424 21,11.5 C21,11.2238576 20.7761424,11 20.5,11 C20.2238576,11 20,11.2238576 20,11.5 C20,11.7761424 20.2238576,12 20.5,12 Z M13.9950562,20.7404175 L13.9950562,22.9988403 L16.0198364,22.9988403 L16.0198364,20.7404175 L13.9950562,20.7404175 Z M10,23.5 C10,23.2238576 10.2276528,23 10.5096495,23 L19.4903505,23 C19.7718221,23 20,23.2319336 20,23.5 C20,23.7761424 19.7723472,24 19.4903505,24 L10.5096495,24 C10.2281779,24 10,23.7680664 10,23.5 Z" id="Combined-Shape" fill="#FFFFFF"></path>
            </g>
        </g>
    </g>
</svg>