<?xml version="1.0" encoding="utf-8"?>
<!-- Generator: Adobe Illustrator 16.0.0, SVG Export Plug-In . SVG Version: 6.00 Build 0)  -->
<!DOCTYPE svg PUBLIC "-//W3C//DTD SVG 1.1//EN" "http://www.w3.org/Graphics/SVG/1.1/DTD/svg11.dtd">
<svg version="1.1" id="Layer_1" xmlns="http://www.w3.org/2000/svg" xmlns:xlink="http://www.w3.org/1999/xlink" x="0px" y="0px"
	 width="20px" height="23px" viewBox="0 0 20 23" enable-background="new 0 0 20 23" xml:space="preserve">
<title>Shape Copy</title>
<desc>Created with Sketch.</desc>
<g id="Page-1">
	<g id="My_profile_home" transform="translate(-1073.000000, -22.000000)">
		<g id="header">
			<g id="Menu" transform="translate(889.000000, 22.000000)">
				<path id="Shape-Copy" fill="#E1E4E5" stroke="#FFFFFF" d="M194,22c1.2,0,2.1-0.9,2.1-2.1h-4.2C191.9,21.1,192.8,22,194,22
					L194,22z M200.9,15.7V9.9c0-3.3-2.2-5.9-5.3-6.6V2.6c0-0.8-0.7-1.6-1.6-1.6c-0.8,0-1.6,0.7-1.6,1.6v0.7
					c-3.1,0.7-5.3,3.4-5.3,6.6v5.8l-2.1,2.1v1h18v-1L200.9,15.7L200.9,15.7z"/>
			</g>
		</g>
	</g>
</g>
</svg>
