<?xml version="1.0" encoding="UTF-8" standalone="no"?>
<svg width="9px" height="9px" viewBox="0 0 9 9" version="1.1" xmlns="http://www.w3.org/2000/svg" xmlns:xlink="http://www.w3.org/1999/xlink">
    <!-- Generator: Sketch 39.1 (31720) - http://www.bohemiancoding.com/sketch -->
    <title>settings</title>
    <desc>Created with Sketch.</desc>
    <defs></defs>
    <g id="Page-1" stroke="none" stroke-width="1" fill="none" fill-rule="evenodd">
        <g id="UI-Kit_events" transform="translate(-254.000000, -164.000000)" fill="#037AFF">
            <path d="M258.5,167 C257.678261,167 257.01223,167.6714 257.01223,168.5 C257.01223,169.3286 257.678261,170 258.5,170 C259.321739,170 259.98777,169.3286 259.98777,168.5 C259.98777,167.6714 259.321739,167 258.5,167 L258.5,167 Z M258.5,169.4 C258.007077,169.4 257.607458,168.9971 257.607458,168.5 C257.607458,168.0032 258.007077,167.6 258.5,167.6 C258.992923,167.6 259.392542,168.0032 259.392542,168.5 C259.392542,168.9971 258.992923,169.4 258.5,169.4 L258.5,169.4 Z M262.702597,169.5608 L262.005665,169.1552 C262.044666,168.9422 262.070468,168.7247 262.070468,168.5 C262.070468,168.2756 262.044666,168.0578 262.005665,167.8448 L262.702597,167.4392 C262.987011,167.2736 263.084515,166.9064 262.920107,166.6196 L262.32518,165.5804 C262.161072,165.2936 261.796855,165.1949 261.512141,165.3608 L260.808308,165.7703 C260.479493,165.4883 260.105675,165.2576 259.690156,165.1091 L259.690156,164.6 C259.690156,164.2685 259.423743,164 259.094928,164 L257.905072,164 C257.576257,164 257.309844,164.2685 257.309844,164.6 L257.309844,165.1091 C256.894325,165.2576 256.520507,165.4883 256.191692,165.7703 L255.487559,165.3608 C255.203145,165.1949 254.838928,165.2936 254.67482,165.5804 L254.079893,166.6196 C253.915485,166.9064 254.012989,167.2736 254.297403,167.4392 L254.994335,167.8448 C254.955334,168.0578 254.929532,168.2756 254.929532,168.5 C254.929532,168.7247 254.955334,168.9422 254.994335,169.1552 L254.297403,169.5608 C254.012989,169.7264 253.915485,170.0936 254.079893,170.3804 L254.67482,171.4196 C254.838928,171.7064 255.203145,171.8051 255.487559,171.6392 L256.191692,171.2297 C256.520507,171.5117 256.894325,171.7427 257.309844,171.8909 L257.309844,172.4 C257.309844,172.7312 257.576257,173 257.905072,173 L259.094928,173 C259.423743,173 259.690156,172.7312 259.690156,172.4 L259.690156,171.8909 C260.105675,171.7427 260.479493,171.5117 260.808308,171.2297 L261.512141,171.6392 C261.796855,171.8051 262.161072,171.7064 262.32518,171.4196 L262.920107,170.3804 C263.084515,170.0936 262.987011,169.7264 262.702597,169.5608 L262.702597,169.5608 Z M262.256176,170.3402 L261.958562,170.8598 C261.876358,171.0035 261.69455,171.0524 261.552043,170.9696 L260.725504,170.4884 C260.305785,170.9657 259.738758,171.3077 259.094928,171.4397 L259.094928,172.1 C259.094928,172.2659 258.962022,172.4 258.797614,172.4 L258.202386,172.4 C258.037978,172.4 257.905072,172.2659 257.905072,172.1 L257.905072,171.4397 C257.261242,171.3077 256.693915,170.9657 256.274496,170.4884 L255.447957,170.9696 C255.30545,171.0524 255.123642,171.0035 255.041438,170.8598 L254.743824,170.3402 C254.66162,170.1968 254.710522,170.0132 254.852729,169.9307 L255.682568,169.4471 C255.583863,169.1489 255.52446,168.8318 255.52446,168.5 C255.52446,168.1682 255.583863,167.8514 255.682568,167.5529 L254.852729,167.0696 C254.710522,166.9868 254.66162,166.8035 254.743824,166.6598 L255.041438,166.1402 C255.123642,165.9968 255.30545,165.9476 255.447957,166.0304 L256.274496,166.5116 C256.693915,166.0343 257.261242,165.6923 257.905072,165.5603 L257.905072,164.9 C257.905072,164.7341 258.037978,164.6 258.202386,164.6 L258.797614,164.6 C258.962022,164.6 259.094928,164.7341 259.094928,164.9 L259.094928,165.5603 C259.738758,165.6923 260.305785,166.0343 260.725504,166.5116 L261.552043,166.0304 C261.69455,165.9476 261.876358,165.9968 261.958562,166.1402 L262.256176,166.6598 C262.33838,166.8035 262.289478,166.9868 262.147271,167.0696 L261.317432,167.5529 C261.416137,167.8514 261.47524,168.1682 261.47524,168.5 C261.47524,168.8318 261.416137,169.1489 261.317432,169.4471 L262.147271,169.9307 C262.289478,170.0132 262.33838,170.1968 262.256176,170.3402 L262.256176,170.3402 Z" id="settings"></path>
        </g>
    </g>
</svg>