<?xml version="1.0" encoding="UTF-8" standalone="no"?>
<svg width="44px" height="44px" viewBox="0 0 44 44" version="1.1" xmlns="http://www.w3.org/2000/svg" xmlns:xlink="http://www.w3.org/1999/xlink">
    <!-- Generator: Sketch 39.1 (31720) - http://www.bohemiancoding.com/sketch -->
    <title>twitter</title>
    <desc>Created with Sketch.</desc>
    <defs></defs>
    <g id="Page-1" stroke="none" stroke-width="1" fill="none" fill-rule="evenodd">
        <g id="UI-Kit" transform="translate(-51.000000, -129.000000)">
            <g id="twitter" transform="translate(51.000000, 129.000000)">
                <path d="M44,22 C44,34.1497805 34.1497805,44 22,44 C9.85021948,44 0,34.1497805 0,22 C0,9.85021948 9.85021948,0 22,0 C34.1497805,0 44,9.85021948 44,22 L44,22 Z" id="Fill-1" fill="#55ACEE"></path>
                <path d="M35,14.4863739 C34.0442383,14.9074414 33.01488,15.1930952 31.9367888,15.3206015 C33.0382519,14.6637955 33.8831214,13.6254589 34.2834274,12.3879554 C33.2520799,12.9943519 32.1098403,13.4361762 30.8954958,13.6738916 C29.9223295,12.6429681 28.5354308,12 27.0008415,12 C24.0539925,12 21.6670747,14.3746823 21.6670747,17.3009037 C21.6670747,17.7160407 21.7133212,18.1217876 21.8048197,18.509743 C17.3721144,18.2878424 13.4406618,16.1775628 10.8105766,12.9691471 C10.3501004,13.7529653 10.0880367,14.6637955 10.0880367,15.6349195 C10.0880367,17.4748659 11.0298747,19.0983479 12.4595391,20.0482208 C11.5853304,20.0210393 10.7638328,19.7818413 10.043282,19.3840017 L10.043282,19.4517086 C10.043282,22.019133 11.8827006,24.1620305 14.3223295,24.648828 C13.875777,24.7704038 13.4038634,24.8361339 12.9180262,24.8361339 C12.5744095,24.8361339 12.240241,24.8030217 11.9135316,24.7412454 C12.5938032,26.8475713 14.5635077,28.3801186 16.8982117,28.4226207 C15.0722196,29.8454533 12.7723248,30.6910477 10.2725256,30.6910477 C9.84089127,30.6910477 9.41572153,30.6678198 9,30.6179045 C11.360065,32.1217876 14.1632017,33 17.1756909,33 C26.9874151,33 32.3544994,24.9206439 32.3544994,17.9152076 C32.3544994,17.6853996 32.3485321,17.4575685 32.3390839,17.2297374 C33.3818686,16.4824908 34.2854165,15.5484326 35,14.4863739 L35,14.4863739 Z" id="Fill-2" fill="#FFFFFF"></path>
            </g>
        </g>
    </g>
</svg>